<?xml version="1.0" standalone="no"?>
<!DOCTYPE svg PUBLIC "-//W3C//DTD SVG 20010904//EN"
 "http://www.w3.org/TR/2001/REC-SVG-20010904/DTD/svg10.dtd">
<svg version="1.0" xmlns="http://www.w3.org/2000/svg"
 width="790.000000pt" height="790.000000pt" viewBox="0 0 790.000000 790.000000"
 preserveAspectRatio="xMidYMid meet">

<g transform="translate(0.000000,790.000000) scale(0.100000,-0.100000)"
fill="#000000" stroke="none">
<path d="M735 7775 c-238 -53 -455 -238 -545 -464 -53 -135 -50 57 -50 -3351
0 -3407 -3 -3215 50 -3351 72 -182 246 -357 429 -429 135 -53 -57 -50 3351
-50 3408 0 3216 -3 3351 50 183 72 357 247 429 429 53 136 50 -56 50 3351 0
3408 3 3216 -50 3351 -72 183 -247 357 -429 429 -136 53 58 50 -3359 49 -2586
-1 -3178 -3 -3227 -14z m1628 -594 c78 -31 157 -110 188 -188 l24 -58 0 -585
0 -585 -24 -58 c-31 -78 -110 -157 -188 -188 l-58 -24 -585 0 -585 0 -58 24
c-78 31 -157 110 -188 188 l-24 58 0 585 0 585 23 58 c42 103 141 184 255 207
23 4 294 8 602 7 l560 -2 58 -24z m2250 0 c78 -31 157 -110 188 -188 l24 -58
0 -585 0 -585 -24 -58 c-31 -78 -110 -157 -188 -188 l-58 -24 -585 0 -585 0
-58 24 c-78 31 -157 110 -188 188 l-24 58 0 585 0 585 23 58 c42 103 141 184
255 207 23 4 294 8 602 7 l560 -2 58 -24z m2250 0 c78 -31 157 -110 188 -188
l24 -58 0 -585 0 -585 -24 -58 c-31 -78 -110 -157 -188 -188 l-58 -24 -585 0
-585 0 -58 24 c-78 31 -157 110 -188 188 l-24 58 0 585 0 585 23 58 c42 103
141 184 255 207 23 4 294 8 602 7 l560 -2 58 -24z m-4500 -2390 c78 -31 157
-110 188 -188 l24 -58 0 -580 0 -580 -24 -58 c-31 -78 -110 -157 -188 -188
l-58 -24 -585 0 -585 0 -58 24 c-78 31 -157 110 -188 188 l-24 58 0 580 0 580
23 58 c42 103 141 184 255 207 23 4 294 8 602 7 l560 -2 58 -24z m2250 0 c78
-31 157 -110 188 -188 l24 -58 0 -580 0 -580 -24 -58 c-31 -78 -110 -157 -188
-188 l-58 -24 -585 0 -585 0 -58 24 c-78 31 -157 110 -188 188 l-24 58 0 580
0 580 23 58 c42 103 141 184 255 207 23 4 294 8 602 7 l560 -2 58 -24z m2250
0 c78 -31 157 -110 188 -188 l24 -58 0 -580 0 -580 -24 -58 c-31 -78 -110
-157 -188 -188 l-58 -24 -585 0 -585 0 -58 24 c-78 31 -157 110 -188 188 l-24
58 0 580 0 580 23 58 c42 103 141 184 255 207 23 4 294 8 602 7 l560 -2 58
-24z m-4500 -2380 c78 -31 157 -110 188 -188 l24 -58 0 -585 0 -585 -24 -58
c-31 -78 -110 -157 -188 -188 l-58 -24 -585 0 -585 0 -58 24 c-78 31 -157 110
-188 188 l-24 58 0 585 0 585 23 58 c42 103 141 184 255 207 23 4 294 8 602 7
l560 -2 58 -24z m2250 0 c78 -31 157 -110 188 -188 l24 -58 0 -585 0 -585 -24
-58 c-31 -78 -110 -157 -188 -188 l-58 -24 -585 0 -585 0 -58 24 c-78 31 -157
110 -188 188 l-24 58 0 585 0 585 23 58 c42 103 141 184 255 207 23 4 294 8
602 7 l560 -2 58 -24z m2250 0 c78 -31 157 -110 188 -188 l24 -58 0 -585 0
-585 -24 -58 c-31 -78 -110 -157 -188 -188 l-58 -24 -585 0 -585 0 -58 24
c-78 31 -157 110 -188 188 l-24 58 0 585 0 585 23 58 c42 103 141 184 255 207
23 4 294 8 602 7 l560 -2 58 -24z"/>
</g>
</svg>
